<svg xmlns="http://www.w3.org/2000/svg" width="120" height="120" fill="none" viewBox="0 0 120 120"><path fill="#000" stroke="#000" stroke-width="1.5" d="M25 32.5 10 40 8 50 10 60 25 67.5 25 50Z" opacity=".9"/><path fill="#000" stroke="#000" stroke-width="1.5" d="M95 32.5 110 40 112 50 110 60 95 67.5 95 50Z" opacity=".9"/><path fill="#000" stroke="#000" stroke-width="2" d="m60 10 35 22.5v35L60 90 25 67.5v-35Z"/><path stroke="#fff" stroke-width="2.5" stroke-linecap="round" d="M45 45Q45 35 60 35 75 35 75 45" opacity=".8"/><path stroke="#fff" stroke-width="2.5" stroke-linecap="round" d="M49 48Q49 42 60 42 71 42 71 48" opacity=".9"/><path stroke="#fff" stroke-width="2.5" stroke-linecap="round" d="M53 51Q53 48 60 48 67 48 67 51"/><circle cx="60" cy="55" r="3" fill="#fff"/></svg>