<svg width="120" height="120" viewBox="0 0 120 120" fill="none" xmlns="http://www.w3.org/2000/svg">
  <defs>
    <linearGradient id="gradient-dark" x1="0%" y1="0%" x2="100%" y2="100%">
      <stop offset="0%" style="stop-color:#38bdf8;stop-opacity:1" />
      <stop offset="50%" style="stop-color:#60a5fa;stop-opacity:1" />
      <stop offset="100%" style="stop-color:#818cf8;stop-opacity:1" />
    </linearGradient>
  </defs>
  
  <!-- Left Wing -->
  <path d="M25 32.5 L10 40 L8 50 L10 60 L25 67.5 L25 50 Z" 
        fill="url(#gradient-dark)" 
        stroke="#f8fafc" 
        stroke-width="1.5"
        opacity="0.9"/>
  
  <!-- Right Wing -->
  <path d="M95 32.5 L110 40 L112 50 L110 60 L95 67.5 L95 50 Z" 
        fill="url(#gradient-dark)" 
        stroke="#f8fafc" 
        stroke-width="1.5"
        opacity="0.9"/>
  
  <!-- Hexagon shape -->
  <path d="M60 10 L95 32.5 L95 67.5 L60 90 L25 67.5 L25 32.5 Z" 
        fill="url(#gradient-dark)" 
        stroke="#f8fafc" 
        stroke-width="2"/>
  
  <!-- WiFi Signal Icon -->
  <!-- Outer arc -->
  <path d="M45 45 Q45 35 60 35 Q75 35 75 45" 
        stroke="#0a0a0a" 
        stroke-width="2.5" 
        fill="none"
        stroke-linecap="round"
        opacity="0.8"/>
  
  <!-- Middle arc -->
  <path d="M49 48 Q49 42 60 42 Q71 42 71 48" 
        stroke="#0a0a0a" 
        stroke-width="2.5" 
        fill="none"
        stroke-linecap="round"
        opacity="0.9"/>
  
  <!-- Inner arc -->
  <path d="M53 51 Q53 48 60 48 Q67 48 67 51" 
        stroke="#0a0a0a" 
        stroke-width="2.5" 
        fill="none"
        stroke-linecap="round"/>
  
  <!-- WiFi dot -->
  <circle cx="60" cy="55" r="3" fill="#0a0a0a"/>
</svg>
